<svg xmlns="http://www.w3.org/2000/svg" viewBox="0 0 64 64"><defs><style>.a{fill:#000842;}.b{fill:#f6ae2d;}.c{fill:#fff;}</style></defs><rect class="a" width="64" height="64"/><path class="b" d="M22.34,30c.72.72,3.5,3.65,3.5,3.65l1.54-1.59L25,29.55l4.64-4.92s-2.09-2-1.17-1.23A9.92,9.92,0,0,0,26,14,9.14,9.14,0,0,0,17,11.46l5.3,5.48-1.39,5.37-5.19,1.43-5.3-5.47a9.88,9.88,0,0,0,2.42,9.36A9.14,9.14,0,0,0,22.34,30Z"/><path class="b" d="M40,35.31l-6.39,6.31L44.16,52.54a4.3,4.3,0,0,0,6.24,0,4.66,4.66,0,0,0,0-6.45Z"/><polygon class="c" points="53.93 16.99 47.22 10.05 27.43 30.51 29.85 33.01 18 45.25 15.3 46.7 11.47 52.94 12.45 53.95 18.48 49.99 19.88 47.19 31.73 34.95 34.14 37.45 53.93 16.99"/></svg>