<svg xmlns="http://www.w3.org/2000/svg" viewBox="0 0 64 64"><defs><style>.a{fill:#000842;}.b{fill:#fff;}</style></defs><path class="a" d="M0,0H64V64H0Z"/><path class="b" d="M24.27,30.2c.59.59,2.85,3,2.85,3l1.26-1.3-2-2,3.78-4s-1.71-1.66-1-1a8.08,8.08,0,0,0-1.95-7.69,7.44,7.44,0,0,0-7.37-2l4.31,4.46L23.09,24l-4.23,1.17-4.31-4.46a8.05,8.05,0,0,0,2,7.63A7.45,7.45,0,0,0,24.27,30.2Zm14.39,4.34-5.2,5.14L42,48.57a3.5,3.5,0,0,0,2.54,1.09,3.54,3.54,0,0,0,2.55-1.09,3.81,3.81,0,0,0,0-5.25ZM50,19.62,44.53,14,28.42,30.63l2,2-9.65,10-2.2,1.18-3.11,5.08.79.82,4.91-3.22,1.14-2.28,9.65-10,2,2Z"/></svg>